<mxfile host="app.diagrams.net" modified="2023-07-28T17:39:56.445Z" agent="Mozilla/5.0 (Macintosh; Intel Mac OS X 10_15_7) AppleWebKit/537.36 (KHTML, like Gecko) Chrome/114.0.0.0 Safari/537.36" version="21.6.5" etag="vo75N0Fs-fzlzEtnE3XW" type="github">
  <diagram name="Page-1" id="CZaac1bFP-w2Tgkd2IH-">
    <mxGraphModel>
      <root>
        <mxCell id="0" />
        <mxCell id="1" parent="0" />
      </root>
    </mxGraphModel>
  </diagram>
</mxfile>
